<svg width="20" height="20" viewBox="0 0 20 20" fill="none" xmlns="http://www.w3.org/2000/svg">
<path d="M19 10C19 14.9706 14.9706 19 10 19C5.02944 19 1 14.9706 1 10M19 10C19 5.02944 14.9706 1 10 1M19 10H17M1 10C1 5.02944 5.02944 1 10 1M1 10H3M10 1V3M11.3229 8.5C10.9703 8.18882 10.5072 8 10 8C8.89543 8 8 8.89543 8 10C8 11.1046 8.89543 12 10 12C11.1046 12 12 11.1046 12 10C12 9.40265 11.7381 8.86647 11.3229 8.5ZM11.3229 8.5L13.8229 6" stroke="black" stroke-width="2" stroke-linecap="round"/>
</svg>
