<svg width="138" height="138" viewBox="0 0 138 138" fill="none" xmlns="http://www.w3.org/2000/svg">
<g filter="url(#filter0_d_44_1376)">
<g filter="url(#filter1_d_44_1376)">
<circle cx="67" cy="67" r="49" transform="rotate(-180 67 67)" fill="url(#paint0_linear_44_1376)"/>
</g>
<path d="M43.5 67.4444L32 59.8889L66.5 41L101 59.8889L89.5 67.4444" stroke="white" stroke-width="3" stroke-linecap="round" stroke-linejoin="round"/>
<path d="M72.6667 71.2222C72.6667 72.0507 73.3382 72.7222 74.1667 72.7222C74.9951 72.7222 75.6667 72.0507 75.6667 71.2222H72.6667ZM72.6667 44.7778V71.2222H75.6667V44.7778H72.6667Z" fill="white"/>
<path d="M43.5 67.4444V82.5556L66.5 92L89.5 82.5556V67.4444C89.5 67.4444 85.6667 59.8889 66.5 59.8889C47.3333 59.8889 43.5 67.4444 43.5 67.4444Z" stroke="white" stroke-width="3" stroke-linecap="round" stroke-linejoin="round"/>
</g>
<defs>
<filter id="filter0_d_44_1376" x="14" y="18" width="106" height="106" filterUnits="userSpaceOnUse" color-interpolation-filters="sRGB">
<feFlood flood-opacity="0" result="BackgroundImageFix"/>
<feColorMatrix in="SourceAlpha" type="matrix" values="0 0 0 0 0 0 0 0 0 0 0 0 0 0 0 0 0 0 127 0" result="hardAlpha"/>
<feOffset dy="4"/>
<feGaussianBlur stdDeviation="2"/>
<feComposite in2="hardAlpha" operator="out"/>
<feColorMatrix type="matrix" values="0 0 0 0 0 0 0 0 0 0 0 0 0 0 0 0 0 0 0.25 0"/>
<feBlend mode="normal" in2="BackgroundImageFix" result="effect1_dropShadow_44_1376"/>
<feBlend mode="normal" in="SourceGraphic" in2="effect1_dropShadow_44_1376" result="shape"/>
</filter>
<filter id="filter1_d_44_1376" x="0" y="0" width="138" height="138" filterUnits="userSpaceOnUse" color-interpolation-filters="sRGB">
<feFlood flood-opacity="0" result="BackgroundImageFix"/>
<feColorMatrix in="SourceAlpha" type="matrix" values="0 0 0 0 0 0 0 0 0 0 0 0 0 0 0 0 0 0 127 0" result="hardAlpha"/>
<feOffset dx="2" dy="2"/>
<feGaussianBlur stdDeviation="10"/>
<feComposite in2="hardAlpha" operator="out"/>
<feColorMatrix type="matrix" values="0 0 0 0 0 0 0 0 0 0 0 0 0 0 0 0 0 0 0.25 0"/>
<feBlend mode="normal" in2="BackgroundImageFix" result="effect1_dropShadow_44_1376"/>
<feBlend mode="normal" in="SourceGraphic" in2="effect1_dropShadow_44_1376" result="shape"/>
</filter>
<linearGradient id="paint0_linear_44_1376" x1="73" y1="56.5" x2="31" y2="95.5" gradientUnits="userSpaceOnUse">
<stop stop-color="#F8BD83"/>
<stop offset="1" stop-color="#B66C3F"/>
</linearGradient>
</defs>
</svg>
