<svg width="16" height="17" viewBox="0 0 16 17" fill="none" xmlns="http://www.w3.org/2000/svg">
<path fill-rule="evenodd" clip-rule="evenodd" d="M1 9.95428C1.01239 11.0398 1.45555 12.076 2.23197 12.8348C3.00838 13.5936 4.05445 14.0128 5.14 14.0003H7.146C7.69147 14.0007 8.21308 14.224 8.59 14.6183L9.659 15.7363C9.82811 15.9076 10.0588 16.004 10.2995 16.004C10.5402 16.004 10.7709 15.9076 10.94 15.7363L12.6 14.0003L13.145 13.3923C13.2454 13.2833 13.3548 13.1829 13.472 13.0923C14.4349 12.3354 14.9979 11.179 15 9.95428V5.04428C14.9731 2.7845 13.1198 0.974168 10.86 1.00028H5.14C2.88021 0.974168 1.0269 2.7845 1 5.04428V9.95428Z" stroke="black" stroke-width="1.5" stroke-linecap="round" stroke-linejoin="round"/>
<path d="M11.6957 9.3245C11.8504 8.94027 11.6644 8.50335 11.2802 8.34861C10.896 8.19386 10.459 8.37989 10.3043 8.76411L11.6957 9.3245ZM10.116 10.2503L10.5898 10.8317L10.5926 10.8294L10.116 10.2503ZM5.864 10.2193L5.37845 10.7909L5.38182 10.7938L5.864 10.2193ZM5.70018 8.73152C5.55173 8.34482 5.11791 8.15168 4.73121 8.30013C4.34451 8.44857 4.15137 8.8824 4.29982 9.26909L5.70018 8.73152ZM5.75 5.00031C5.75 4.58609 5.41421 4.25031 5 4.25031C4.58579 4.25031 4.25 4.58609 4.25 5.00031H5.75ZM4.25 6.00031C4.25 6.41452 4.58579 6.75031 5 6.75031C5.41421 6.75031 5.75 6.41452 5.75 6.00031H4.25ZM11.75 5.00031C11.75 4.58609 11.4142 4.25031 11 4.25031C10.5858 4.25031 10.25 4.58609 10.25 5.00031H11.75ZM10.25 6.00031C10.25 6.41452 10.5858 6.75031 11 6.75031C11.4142 6.75031 11.75 6.41452 11.75 6.00031H10.25ZM10.3043 8.76411C10.162 9.11734 9.93343 9.42922 9.63941 9.67121L10.5926 10.8294C11.0804 10.4279 11.4597 9.91051 11.6957 9.3245L10.3043 8.76411ZM9.64225 9.66888C8.68013 10.4528 7.29676 10.4427 6.34618 9.64485L5.38182 10.7938C6.88378 12.0545 9.06957 12.0704 10.5898 10.8317L9.64225 9.66888ZM6.34954 9.64768C6.05974 9.40153 5.83645 9.08649 5.70018 8.73152L4.29982 9.26909C4.52618 9.85874 4.89708 10.382 5.37846 10.7909L6.34954 9.64768ZM4.25 5.00031V6.00031H5.75V5.00031H4.25ZM10.25 5.00031V6.00031H11.75V5.00031H10.25Z" fill="black"/>
</svg>
