<svg width="16" height="16" viewBox="0 0 16 16" fill="none" xmlns="http://www.w3.org/2000/svg">
<path fill-rule="evenodd" clip-rule="evenodd" d="M10.6921 1H5.30807C4.15914 1.00635 3.0598 1.46885 2.25189 2.28576C1.44398 3.10268 0.993684 4.20708 1.00007 5.356V10.644C0.993684 11.7929 1.44398 12.8973 2.25189 13.7142C3.0598 14.5311 4.15914 14.9937 5.30807 15H10.6921C11.841 14.9937 12.9403 14.5311 13.7482 13.7142C14.5562 12.8973 15.0064 11.7929 15.0001 10.644V5.356C15.0064 4.20708 14.5562 3.10268 13.7482 2.28576C12.9403 1.46885 11.841 1.00635 10.6921 1Z" stroke="black" stroke-width="1.5" stroke-linecap="round" stroke-linejoin="round"/>
<path d="M4.00012 5C3.58591 5 3.25012 5.33579 3.25012 5.75C3.25012 6.16421 3.58591 6.5 4.00012 6.5V5ZM8.00012 6.5C8.41434 6.5 8.75012 6.16421 8.75012 5.75C8.75012 5.33579 8.41434 5 8.00012 5V6.5ZM7.25012 5.75C7.25012 6.16421 7.58591 6.5 8.00012 6.5C8.41434 6.5 8.75012 6.16421 8.75012 5.75H7.25012ZM8.75012 4C8.75012 3.58579 8.41434 3.25 8.00012 3.25C7.58591 3.25 7.25012 3.58579 7.25012 4H8.75012ZM8.00012 5C7.58591 5 7.25012 5.33579 7.25012 5.75C7.25012 6.16421 7.58591 6.5 8.00012 6.5V5ZM11.5001 6.5C11.9143 6.5 12.2501 6.16421 12.2501 5.75C12.2501 5.33579 11.9143 5 11.5001 5V6.5ZM11.5001 5C11.0859 5 10.7501 5.33579 10.7501 5.75C10.7501 6.16421 11.0859 6.5 11.5001 6.5V5ZM12.0001 6.5C12.4143 6.5 12.7501 6.16421 12.7501 5.75C12.7501 5.33579 12.4143 5 12.0001 5V6.5ZM12.1138 6.18115C12.3519 5.84222 12.2702 5.37443 11.9313 5.13631C11.5923 4.8982 11.1246 4.97992 10.8864 5.31885L12.1138 6.18115ZM7.2737 9.27828C6.95795 9.54637 6.91931 10.0197 7.1874 10.3354C7.45549 10.6512 7.92879 10.6898 8.24454 10.4217L7.2737 9.27828ZM5.29973 10.9003C4.96852 11.149 4.90167 11.6192 5.15041 11.9504C5.39916 12.2816 5.8693 12.3485 6.20051 12.0997L5.29973 10.9003ZM8.25687 10.407C8.56671 10.1321 8.59505 9.6581 8.32015 9.34826C8.04525 9.03841 7.57123 9.01008 7.26138 9.28497L8.25687 10.407ZM7.16914 10.3091C7.42488 10.6349 7.89634 10.6917 8.22218 10.436C8.54802 10.1802 8.60484 9.70878 8.3491 9.38294L7.16914 10.3091ZM7.18604 7.44667C7.01852 7.06784 6.57561 6.89655 6.19679 7.06408C5.81796 7.23161 5.64667 7.67451 5.8142 8.05333L7.18604 7.44667ZM8.36092 9.4024C8.11371 9.07004 7.64388 9.001 7.31152 9.24821C6.97916 9.49541 6.91013 9.96524 7.15733 10.2976L8.36092 9.4024ZM9.89529 12.6608C10.2602 12.8567 10.7149 12.7198 10.9109 12.3548C11.1068 11.9899 10.9699 11.5352 10.605 11.3392L9.89529 12.6608ZM4.00012 6.5H8.00012V5H4.00012V6.5ZM8.75012 5.75V4H7.25012V5.75H8.75012ZM8.00012 6.5H11.5001V5H8.00012V6.5ZM11.5001 6.5H12.0001V5H11.5001V6.5ZM10.8864 5.31885C9.85519 6.7867 8.64117 8.11722 7.2737 9.27828L8.24454 10.4217C9.70912 9.17822 11.0093 7.75322 12.1138 6.18115L10.8864 5.31885ZM6.20051 12.0997C6.71133 11.7161 7.4531 11.1201 8.25687 10.407L7.26138 9.28497C6.48714 9.97187 5.77692 10.5419 5.29973 10.9003L6.20051 12.0997ZM8.3491 9.38294C7.88244 8.78837 7.49174 8.13793 7.18604 7.44667L5.8142 8.05333C6.17033 8.85864 6.62549 9.61639 7.16914 10.3091L8.3491 9.38294ZM7.15733 10.2976C7.88554 11.2767 8.8203 12.0835 9.89529 12.6608L10.605 11.3392C9.72389 10.8661 8.95776 10.2048 8.36092 9.4024L7.15733 10.2976Z" fill="black"/>
</svg>
