<svg width="20" height="22" viewBox="0 0 20 22" fill="none" xmlns="http://www.w3.org/2000/svg">
<path d="M1 21H10M9 5.25204C9.63924 5.08751 10.3094 5 11 5C15.4183 5 19 8.58172 19 13C19 16.3574 16.9318 19.2317 14 20.4185M3.5 12H7.5C7.96466 12 8.19698 12 8.39018 12.0384C9.18356 12.1962 9.80376 12.8164 9.96157 13.6098C10 13.803 10 14.0353 10 14.5C10 14.9647 10 15.197 9.96157 15.3902C9.80376 16.1836 9.18356 16.8038 8.39018 16.9616C8.19698 17 7.96466 17 7.5 17H3.5C3.03534 17 2.80302 17 2.60982 16.9616C1.81644 16.8038 1.19624 16.1836 1.03843 15.3902C1 15.197 1 14.9647 1 14.5C1 14.0353 1 13.803 1.03843 13.6098C1.19624 12.8164 1.81644 12.1962 2.60982 12.0384C2.80302 12 3.03534 12 3.5 12ZM2 4.5V12H9V4.5C9 2.567 7.433 1 5.5 1C3.567 1 2 2.567 2 4.5Z" stroke="black" stroke-width="2" stroke-linecap="round" stroke-linejoin="round"/>
</svg>
