<svg width="138" height="138" viewBox="0 0 138 138" fill="none" xmlns="http://www.w3.org/2000/svg">
<g filter="url(#filter0_d_44_1376)">
<g filter="url(#filter1_d_44_1376)">
<circle cx="67" cy="67" r="49" transform="rotate(-180 67 67)" fill="url(#paint0_linear_44_1376)"/>
</g>
<path d="M102.969 59.7555C104.927 58.7732 104.88 57.6584 102.822 56.9069C102.168 56.6679 101.447 56.4018 100.693 56.1137C97.8038 55.0082 93.8205 53.4715 91.835 52.7123C86.4712 50.6471 75.1019 46.286 72.0717 45.1198C70.6116 44.561 68.7667 43.8503 67.9786 43.5466C67.8339 43.4909 67.6936 43.437 67.5608 43.3861C66.8649 43.1199 66.1645 43.1338 65.4738 43.413C64.9179 43.6377 63.0912 44.3787 61.4112 45.059C59.7311 45.7393 57.4219 46.6626 56.2794 47.1242C53.8541 48.1082 37.8663 54.5466 32.0564 56.8851C30.8956 57.3532 29.83 57.7908 29.0826 58.0997C28.3668 58.3955 28.3428 58.7502 29.0322 59.1032C30.1472 59.6741 32.0726 60.6374 34.3474 61.7625C37.8724 63.4997 40.7681 64.9332 40.7804 64.9453C40.7926 64.9575 40.8598 66.0872 40.9331 67.4539L41.0614 69.9381L40.8537 70.2236C40.6826 70.4666 40.6398 70.582 40.6215 70.9039C40.5971 71.2501 40.6154 71.3291 40.7742 71.6146L40.9575 71.9365L40.7865 73.2728C40.5604 75.0099 40.1511 78.545 40.035 79.7416C39.98 80.2579 39.9251 80.847 39.9067 81.0414L39.8701 81.3998L40.2427 81.7521C40.6704 82.159 41.434 82.566 41.9472 82.6571C42.3749 82.7361 42.9247 82.7361 43.5173 82.651C44.0305 82.5842 44.2993 82.4749 44.3604 82.323C44.3787 82.2744 44.3237 81.6913 44.2443 81.0293C43.9381 78.5445 43.7851 76.0434 43.7861 73.54C43.7861 72.222 43.7922 72.1612 43.9144 72.0519C44.3115 71.6935 44.4092 71.0375 44.1343 70.5091C44.0445 70.3434 43.9884 70.1618 43.9694 69.9746C43.9694 69.7013 44.2198 66.7189 44.2443 66.6946C44.2504 66.6825 49.3149 69.191 55.4974 72.2645L64.9461 76.959C66.0708 77.5178 67.3928 77.5159 68.516 76.9539L70.3978 76.0121C71.3032 75.5578 73.307 74.5544 75.8802 73.2715L73.4891 70.5382C73.2952 70.3171 73.193 70.031 73.2032 69.7378C73.2134 69.4447 73.3352 69.1663 73.5441 68.959L74.3743 68.1329C74.6826 67.8266 75.0963 67.6478 75.5319 67.6328C75.9675 67.6178 76.3926 67.7677 76.7215 68.0522L80.2404 71.0946C82.3694 70.0329 84.6463 68.8971 86.8866 67.7807C95.6322 63.4209 100.388 61.05 102.969 59.7555ZM70.8798 66.4006L69.3183 71.3941C68.8711 72.8239 66.9693 73.1239 66.0994 71.9013L63.0625 67.6312C62.8924 67.3921 62.6664 67.1977 62.404 67.0648C62.1415 66.9319 61.8505 66.8645 61.556 66.8683L56.2965 66.9352C54.7906 66.954 53.9139 65.2484 54.8169 64.0482L57.9625 59.8571C58.1389 59.6225 58.2551 59.3486 58.3012 59.0593C58.3473 58.77 58.3218 58.4738 58.227 58.1965L56.5378 53.2437C56.0546 51.8261 57.4164 50.4722 58.8422 50.9526L63.8243 52.6321C64.1033 52.7262 64.4011 52.7514 64.6921 52.7056C64.9831 52.6598 65.2585 52.5443 65.4946 52.3691L69.7099 49.2416C70.9171 48.3463 72.6326 49.2155 72.6136 50.7127L72.5464 55.9418C72.5426 56.2347 72.6104 56.5241 72.7442 56.7851C72.878 57.046 73.0737 57.2707 73.3144 57.4397L77.6085 60.4591C78.8383 61.324 78.5371 63.2148 77.0984 63.6594L72.076 65.2113C71.7946 65.2983 71.5386 65.4519 71.3302 65.6591C71.1218 65.8663 70.9673 66.1208 70.8798 66.4006Z" fill="white"/>
<path d="M85.8176 74.2914C85.473 70.7928 85.346 69.5877 85.3197 69.5616C85.3038 69.5501 83.5523 70.4059 80.9406 71.699L84.6385 74.897C84.7464 74.9902 84.88 75.0491 85.0219 75.066C85.1639 75.0829 85.3076 75.057 85.4346 74.9918C85.5616 74.9266 85.666 74.825 85.7343 74.7001C85.8026 74.5752 85.8316 74.4329 85.8176 74.2914Z" fill="white"/>
<path d="M76.454 74.927L76.0001 75.1535L68.5084 78.8925C67.3861 79.4527 66.0659 79.4539 64.9425 78.8958L57.2998 75.0989C48.5147 70.7317 47.8794 70.428 47.8549 70.5555C47.8366 70.6284 47.7572 71.3451 47.6717 72.1469C47.3968 74.7648 46.7797 80.4926 46.5964 82.1872C46.4926 83.1044 46.4132 83.8576 46.4132 83.8697C46.4132 83.9244 49.1929 85.7223 50.0787 86.2386C52.2108 87.4777 54.9416 88.7289 57.1043 89.4517C61.8756 91.0431 66.6896 91.4076 71.4609 90.5451C75.545 89.8071 79.5563 88.2369 83.7179 85.7575C83.8957 85.6519 84.0481 85.5088 84.1644 85.3384C84.2806 85.1679 84.3578 84.9741 84.3906 84.7708C84.4234 84.5674 84.4109 84.3593 84.3541 84.1613C84.2973 83.9632 84.1975 83.7799 84.0618 83.6243L76.454 74.927Z" fill="white"/>
</g>
<defs>
<filter id="filter0_d_44_1376" x="14" y="18" width="106" height="106" filterUnits="userSpaceOnUse" color-interpolation-filters="sRGB">
<feFlood flood-opacity="0" result="BackgroundImageFix"/>
<feColorMatrix in="SourceAlpha" type="matrix" values="0 0 0 0 0 0 0 0 0 0 0 0 0 0 0 0 0 0 127 0" result="hardAlpha"/>
<feOffset dy="4"/>
<feGaussianBlur stdDeviation="2"/>
<feComposite in2="hardAlpha" operator="out"/>
<feColorMatrix type="matrix" values="0 0 0 0 0 0 0 0 0 0 0 0 0 0 0 0 0 0 0.25 0"/>
<feBlend mode="normal" in2="BackgroundImageFix" result="effect1_dropShadow_44_1376"/>
<feBlend mode="normal" in="SourceGraphic" in2="effect1_dropShadow_44_1376" result="shape"/>
</filter>
<filter id="filter1_d_44_1376" x="0" y="0" width="138" height="138" filterUnits="userSpaceOnUse" color-interpolation-filters="sRGB">
<feFlood flood-opacity="0" result="BackgroundImageFix"/>
<feColorMatrix in="SourceAlpha" type="matrix" values="0 0 0 0 0 0 0 0 0 0 0 0 0 0 0 0 0 0 127 0" result="hardAlpha"/>
<feOffset dx="2" dy="2"/>
<feGaussianBlur stdDeviation="10"/>
<feComposite in2="hardAlpha" operator="out"/>
<feColorMatrix type="matrix" values="0 0 0 0 0 0 0 0 0 0 0 0 0 0 0 0 0 0 0.25 0"/>
<feBlend mode="normal" in2="BackgroundImageFix" result="effect1_dropShadow_44_1376"/>
<feBlend mode="normal" in="SourceGraphic" in2="effect1_dropShadow_44_1376" result="shape"/>
</filter>
<linearGradient id="paint0_linear_44_1376" x1="73" y1="56.5" x2="31" y2="95.5" gradientUnits="userSpaceOnUse">
<stop stop-color="#F8BD83"/>
<stop offset="1" stop-color="#B66C3F"/>
</linearGradient>
</defs>
</svg>
